<svg width="590" height="528" viewBox="0 0 590 528" fill="none" xmlns="http://www.w3.org/2000/svg">
<g clip-path="url(#clip0)">
<path d="M478.863 528C540.242 528 590 520.547 590 511.354C590 502.161 540.242 494.709 478.863 494.709C417.483 494.709 367.725 502.161 367.725 511.354C367.725 520.547 417.483 528 478.863 528Z" fill="#E6E6E6"/>
<path d="M-81.8151 0H589.335C589.335 64.1791 574.953 127.73 547.011 187.024C519.069 246.318 478.114 300.193 426.484 345.575C374.854 390.956 313.56 426.955 246.102 451.515C178.643 476.075 106.342 488.716 33.3263 488.716H-81.8151V0Z" fill="#2D3748"/>
<path d="M434.258 166.662C460.665 166.662 482.072 145.233 482.072 118.8C482.072 92.3667 460.665 70.9383 434.258 70.9383C407.851 70.9383 386.444 92.3667 386.444 118.8C386.444 145.233 407.851 166.662 434.258 166.662Z" fill="#F2F2F2"/>
<path d="M287.401 25.8116C289.664 25.8116 291.499 23.9749 291.499 21.7092C291.499 19.4435 289.664 17.6068 287.401 17.6068C285.137 17.6068 283.302 19.4435 283.302 21.7092C283.302 23.9749 285.137 25.8116 287.401 25.8116Z" fill="#FF6584"/>
<path d="M420.597 300.674C422.86 300.674 424.695 298.838 424.695 296.572C424.695 294.306 422.86 292.469 420.597 292.469C418.333 292.469 416.498 294.306 416.498 296.572C416.498 298.838 418.333 300.674 420.597 300.674Z" fill="#FF6584"/>
<path d="M434.258 25.8116C436.521 25.8116 438.356 23.9749 438.356 21.7092C438.356 19.4435 436.521 17.6068 434.258 17.6068C431.995 17.6068 430.16 19.4435 430.16 21.7092C430.16 23.9749 431.995 25.8116 434.258 25.8116Z" fill="#F2F2F2"/>
<path d="M491.635 223.412C493.898 223.412 495.733 221.575 495.733 219.309C495.733 217.044 493.898 215.207 491.635 215.207C489.371 215.207 487.536 217.044 487.536 219.309C487.536 221.575 489.371 223.412 491.635 223.412Z" fill="#F2F2F2"/>
<path d="M328.384 136.577C330.647 136.577 332.482 134.74 332.482 132.475C332.482 130.209 330.647 128.372 328.384 128.372C326.121 128.372 324.286 130.209 324.286 132.475C324.286 134.74 326.121 136.577 328.384 136.577Z" fill="#F2F2F2"/>
<path d="M111.855 109.228C114.118 109.228 115.953 107.391 115.953 105.125C115.953 102.859 114.118 101.023 111.855 101.023C109.591 101.023 107.756 102.859 107.756 105.125C107.756 107.391 109.591 109.228 111.855 109.228Z" fill="#F2F2F2"/>
<path d="M189.04 414.859C265.998 414.859 328.384 352.41 328.384 275.376C328.384 198.342 265.998 135.893 189.04 135.893C112.083 135.893 49.6965 198.342 49.6965 275.376C49.6965 352.41 112.083 414.859 189.04 414.859Z" fill="#4FD1C5"/>
<path opacity="0.2" d="M182.893 239.138C194.21 239.138 203.384 229.954 203.384 218.626C203.384 207.297 194.21 198.114 182.893 198.114C171.575 198.114 162.401 207.297 162.401 218.626C162.401 229.954 171.575 239.138 182.893 239.138Z" fill="black"/>
<path opacity="0.2" d="M182.893 391.611C202.509 391.611 218.412 375.693 218.412 356.057C218.412 336.421 202.509 320.503 182.893 320.503C163.276 320.503 147.374 336.421 147.374 356.057C147.374 375.693 163.276 391.611 182.893 391.611Z" fill="black"/>
<path opacity="0.2" d="M79.751 310.93C84.6552 310.93 88.6308 306.951 88.6308 302.042C88.6308 297.133 84.6552 293.153 79.751 293.153C74.8469 293.153 70.8713 297.133 70.8713 302.042C70.8713 306.951 74.8469 310.93 79.751 310.93Z" fill="black"/>
<path opacity="0.2" d="M430.099 98.8373C432.706 98.8373 434.819 96.7218 434.819 94.1122C434.819 91.5025 432.706 89.387 430.099 89.387C427.492 89.387 425.378 91.5025 425.378 94.1122C425.378 96.7218 427.492 98.8373 430.099 98.8373Z" fill="black"/>
<path opacity="0.2" d="M229.963 192.509C232.57 192.509 234.683 190.394 234.683 187.784C234.683 185.175 232.57 183.059 229.963 183.059C227.356 183.059 225.242 185.175 225.242 187.784C225.242 190.394 227.356 192.509 229.963 192.509Z" fill="black"/>
<path opacity="0.2" d="M176.745 287.683C180.14 287.683 182.893 284.928 182.893 281.53C182.893 278.131 180.14 275.376 176.745 275.376C173.35 275.376 170.598 278.131 170.598 281.53C170.598 284.928 173.35 287.683 176.745 287.683Z" fill="black"/>
<path opacity="0.2" d="M418.609 136.589C421.216 136.589 423.329 134.474 423.329 131.864C423.329 129.255 421.216 127.139 418.609 127.139C416.002 127.139 413.888 129.255 413.888 131.864C413.888 134.474 416.002 136.589 418.609 136.589Z" fill="black"/>
<path opacity="0.2" d="M291.56 252.825C294.167 252.825 296.28 250.709 296.28 248.1C296.28 245.49 294.167 243.375 291.56 243.375C288.953 243.375 286.839 245.49 286.839 248.1C286.839 250.709 288.953 252.825 291.56 252.825Z" fill="black"/>
<path opacity="0.2" d="M460.909 134.233C464.675 134.233 467.728 131.177 467.728 127.408C467.728 123.638 464.675 120.583 460.909 120.583C457.144 120.583 454.091 123.638 454.091 127.408C454.091 131.177 457.144 134.233 460.909 134.233Z" fill="black"/>
<path opacity="0.2" d="M252.577 303.116C256.342 303.116 259.395 300.06 259.395 296.291C259.395 292.522 256.342 289.466 252.577 289.466C248.811 289.466 245.758 292.522 245.758 296.291C245.758 300.06 248.811 303.116 252.577 303.116Z" fill="black"/>
<path opacity="0.2" d="M102.975 227.514C107.879 227.514 111.855 223.535 111.855 218.626C111.855 213.717 107.879 209.737 102.975 209.737C98.0709 209.737 94.0953 213.717 94.0953 218.626C94.0953 223.535 98.0709 227.514 102.975 227.514Z" fill="black"/>
<path d="M219.231 355.776C204.577 355.756 189.936 354.909 175.377 353.239C131.589 348.261 91.2036 336.499 61.6614 320.119C31.7576 303.539 16.4558 284.124 18.5741 265.452C20.0416 252.516 32.5327 240.937 56.7609 230.056C57.0914 229.908 57.467 229.897 57.8052 230.027C58.1434 230.156 58.4165 230.414 58.5647 230.745C58.7129 231.075 58.7239 231.451 58.5955 231.79C58.467 232.129 58.2095 232.403 57.8796 232.552C34.6072 243.003 22.6384 253.866 21.289 265.761C19.3031 283.262 34.1113 301.717 62.9855 317.727C92.2209 333.937 132.245 345.583 175.685 350.522C219.126 355.46 260.739 353.094 292.862 343.859C324.587 334.738 343.152 320.077 345.138 302.576C346.481 290.736 339.966 278.182 326.297 266.271C326.024 266.033 325.856 265.696 325.831 265.334C325.806 264.972 325.926 264.615 326.163 264.341C326.401 264.068 326.738 263.9 327.1 263.875C327.461 263.85 327.818 263.97 328.091 264.208C342.469 276.737 349.302 290.111 347.853 302.884C345.734 321.556 326.473 337.042 293.616 346.487C272.224 352.638 246.69 355.776 219.231 355.776Z" fill="white"/>
<path d="M433.544 480.128L434.512 488.85L425.799 487.881V477.22L433.544 480.128Z" fill="#FFB8B8"/>
<path d="M524.553 480.128L523.584 488.85L532.298 487.881V477.22L524.553 480.128Z" fill="#FFB8B8"/>
<path d="M432.576 292.115L428.703 391.936C428.703 391.936 416.117 466.56 419.021 468.498C421.926 470.437 419.021 481.097 419.021 481.097L435.48 483.035C435.48 483.035 435.48 475.282 439.353 472.375C443.226 469.467 479.048 332.819 479.048 332.819L515.839 464.622C515.839 464.622 514.871 472.375 517.775 472.375C520.68 472.375 521.648 483.035 521.648 483.035H538.107V472.375C538.107 472.375 542.948 471.406 540.043 463.653C537.139 455.899 526.489 292.115 526.489 292.115L432.576 292.115Z" fill="#2F2E41"/>
<path d="M427.735 480.128C427.735 480.128 422.894 477.22 420.958 479.159C419.022 481.097 403.531 500.48 403.531 500.48C403.531 500.48 382.231 514.048 401.594 517.924C420.958 521.801 435.481 503.387 436.449 501.449C437.417 499.511 435.481 484.004 434.512 485.943C433.544 487.881 430.64 486.912 429.671 485.943C428.703 484.973 427.735 480.128 427.735 480.128Z" fill="#2F2E41"/>
<path d="M530.362 480.128C530.362 480.128 535.202 477.22 537.139 479.159C539.075 481.097 554.566 500.48 554.566 500.48C554.566 500.48 575.866 514.048 556.502 517.924C537.139 521.801 522.616 503.387 521.648 501.449C520.68 499.511 522.616 484.004 523.584 485.943C524.553 487.881 527.457 486.912 528.425 485.943C529.393 484.973 530.362 480.128 530.362 480.128Z" fill="#2F2E41"/>
<path d="M491.151 148.682C502.112 148.682 510.998 139.787 510.998 128.815C510.998 117.843 502.112 108.948 491.151 108.948C480.189 108.948 471.303 117.843 471.303 128.815C471.303 139.787 480.189 148.682 491.151 148.682Z" fill="#FFB8B8"/>
<path d="M478.08 139.96L475.176 170.003L498.412 174.849L504.221 138.991L478.08 139.96Z" fill="#FFB8B8"/>
<path d="M502.285 163.219C502.285 163.219 496.475 175.818 475.176 162.25L435.481 292.115C435.481 292.115 488.73 324.096 522.616 299.868L510.998 169.034L502.285 163.219Z" fill="#575A89"/>
<path d="M479.048 148.682L460.653 145.775L458.717 158.374C458.717 158.374 433.544 161.281 430.64 170.973L433.544 242.689C433.544 242.689 424.831 258.195 432.576 267.886C432.576 267.886 419.99 294.053 429.671 298.899C429.671 298.899 451.939 288.238 465.494 291.146C465.494 291.146 473.239 289.207 473.239 283.393C473.239 277.578 479.048 148.682 479.048 148.682Z" fill="#2F2E41"/>
<path d="M501.316 150.621L511.966 153.528L512.935 167.096C512.935 167.096 539.075 183.571 540.043 193.263C541.012 202.954 520.68 249.473 520.68 249.473C520.68 249.473 528.425 263.041 525.521 271.763C525.521 271.763 538.107 296.961 530.362 303.745C530.362 303.745 515.839 307.621 513.903 301.806C511.966 295.991 494.539 229.121 502.285 197.139C502.285 197.139 494.539 156.435 501.316 150.621Z" fill="#2F2E41"/>
<path d="M512.45 182.182H512.086V172.189C512.086 171.43 511.937 170.678 511.646 169.976C511.356 169.274 510.93 168.637 510.394 168.1C509.857 167.563 509.22 167.137 508.519 166.846C507.818 166.555 507.067 166.406 506.308 166.406H485.158C484.399 166.406 483.648 166.555 482.947 166.846C482.246 167.137 481.609 167.563 481.072 168.1C480.536 168.637 480.11 169.274 479.82 169.976C479.529 170.678 479.38 171.43 479.38 172.189V227.011C479.38 227.771 479.529 228.523 479.82 229.224C480.11 229.926 480.536 230.564 481.072 231.101C481.609 231.638 482.246 232.064 482.947 232.355C483.648 232.645 484.399 232.795 485.158 232.795H506.308C507.067 232.795 507.818 232.645 508.519 232.355C509.22 232.064 509.857 231.638 510.394 231.101C510.93 230.564 511.356 229.926 511.646 229.224C511.937 228.523 512.086 227.771 512.086 227.011V189.295H512.45V182.182Z" fill="white"/>
<path d="M521.648 221.368C521.648 221.368 513.903 196.17 502.285 203.923C490.666 211.676 510.03 232.997 510.03 232.997L521.648 221.368Z" fill="#FFB8B8"/>
<path d="M468.398 202.954C468.398 202.954 481.953 186.479 488.73 194.232C495.507 201.985 477.112 219.429 477.112 219.429L468.398 202.954Z" fill="#FFB8B8"/>
<path d="M433.544 170.003C433.544 170.003 428.703 169.034 425.799 177.756C422.894 186.479 412.244 219.429 412.244 225.244C412.244 231.059 416.117 254.318 437.417 250.442C458.717 246.565 483.889 219.429 483.889 219.429L470.335 199.078L441.29 216.522L433.544 170.003Z" fill="#2F2E41"/>
<path opacity="0.1" d="M437.727 195.128L441.774 216.037L471.787 198.593L443.71 209.254L437.52 193.88L437.727 195.128Z" fill="black"/>
<path opacity="0.1" d="M523.101 216.037L526.973 218.945L528.909 205.377L523.101 216.037Z" fill="black"/>
<path opacity="0.1" d="M433.06 252.865C433.06 252.865 461.498 245.121 474.872 228.156C474.872 228.156 461.137 250.926 433.06 252.865Z" fill="black"/>
<path opacity="0.1" d="M504.705 235.42C504.705 235.42 510.693 264.756 526.094 265.594C526.094 265.594 507.61 271.278 504.705 235.42Z" fill="black"/>
<path d="M536.171 189.386C536.171 189.386 539.075 191.324 541.012 200.047C542.948 208.769 555.534 241.72 550.693 249.473C545.852 257.226 538.107 274.67 521.648 263.041L505.189 232.997L521.648 217.491L528.425 222.337L536.171 189.386Z" fill="#2F2E41"/>
<path d="M472.097 133.854C472.097 133.854 455.451 106.849 473.181 105.445C479.098 105.031 484.875 103.455 490.184 100.807C496.061 97.8137 503.459 95.5383 507.396 100.147C509.114 102.254 511.116 104.111 513.346 105.665C516.805 107.961 520.806 111.682 518.59 115.674L514.958 122.219L509.873 135.308C511.057 129.662 511.087 124.922 508.056 122.582C508.056 122.582 491.151 129.784 482.631 116.765C473.093 109.602 470.059 132.148 472.097 133.854Z" fill="#2F2E41"/>
<path d="M495.991 190.84C498.665 190.84 500.832 188.67 500.832 185.994C500.832 183.318 498.665 181.148 495.991 181.148C493.318 181.148 491.151 183.318 491.151 185.994C491.151 188.67 493.318 190.84 495.991 190.84Z" fill="#4FD1C5"/>
</g>
<defs>
<clipPath id="clip0">
<rect width="590" height="528" fill="white"/>
</clipPath>
</defs>
</svg>
